# xmcd
#
# Track frame offsets: 
#        150
#        1782
#        16835
#        35835
#        63550
#        87525
#        106075
#        122650
#        146900
#        169862
#
# Disc length: 2516 seconds
#
# Revision: 0
# Processed by: cddbd v1.5.2PL0 Copyright (c) Steve Scherf et al.
# Submitted via: ExactAudioCopy v0.95b4
#
DISCID=8109d20a
DTITLE=Johnny "Guitar" Watson - Johnny "Guitar" Watson and the Family 
DTITLE=Clone
DYEAR=1900
DGENRE=Blues
TTITLE0=Clone Information
TTITLE1=Family Clone
TTITLE2=Forget the Joneses
TTITLE3=Ain't Movin'
TTITLE4=Come and Dance with Me
TTITLE5=Rio Dreamin'  Watson
TTITLE6=What Is Love  Watson
TTITLE7=Voodoo What You Do
TTITLE8=Please Send Me Someone to Love
TTITLE9=Chill Me Out
EXTD=
EXTT0=
EXTT1=
EXTT2=
EXTT3=
EXTT4=
EXTT5=
EXTT6=
EXTT7=
EXTT8=
EXTT9=
PLAYORDER=
